<mxfile host="app.diagrams.net" modified="2023-12-18T10:28:50.094Z" agent="Mozilla/5.0 (Macintosh; Intel Mac OS X 10_15_7) AppleWebKit/537.36 (KHTML, like Gecko) Chrome/120.0.0.0 Safari/537.36" version="22.0.0" etag="TvxSiw71kHDzzLuMWDEZ" type="github">
  <diagram name="Page-1" id="6qtT2UH42lh1B7ash3I9">
    <mxGraphModel>
      <root>
        <mxCell id="0" />
        <mxCell id="1" parent="0" />
      </root>
    </mxGraphModel>
  </diagram>
</mxfile>
